# xmcd
#
# Track frame offsets:
# 150
# 14356
# 24702
# 37464
# 48633
# 60715
# 73659
# 82757
# 94206
# 107203
# 122294
# 130789
# 141609
# 151657
# 163708
# 178278
# 190965
# 201858
# 211536
# 224464
#
# Disc length: 3115 seconds
#
#
# Revision: 2
# Processed by: cddbd v1.5.1PL0 Copyright (c) Steve Scherf et al.
# Submitted via: FreeRIP 2.52 
#
DISCID=280c2914
DTITLE=Simon And Garfunkel - The Very Best Of Simon And Garfunkel - Tales From New York
DYEAR=1999
DGENRE=Folk
TTITLE0=The Sound of Silence
TTITLE1=Wednesday Morning, 3AM
TTITLE2=The Sun is Burning
TTITLE3=Peggy-O
TTITLE4=Benedictus
TTITLE5=He was my Brother
TTITLE6=Weve got a Groovy Thing Going
TTITLE7=Homeward Bound
TTITLE8=I am a Rock
TTITLE9=Kathys Song
TTITLE10=April Come She Will
TTITLE11=Leaves that are Green
TTITLE12=Flowers Never Bend with the Rainfall
TTITLE13=The Dangling Conversation
TTITLE14=Scarborough Fair - Canticle
TTITLE15=Patterns
TTITLE16=Cloudy
TTITLE17=For Emily, Whenever I May Find Her
TTITLE18=Save the Life of my Child
TTITLE19=7 OClock News - Silent Night
EXTD=
EXTT0=
EXTT1=
EXTT2=
EXTT3=
EXTT4=
EXTT5=
EXTT6=
EXTT7=
EXTT8=
EXTT9=
EXTT10=
EXTT11=
EXTT12=
EXTT13=
EXTT14=
EXTT15=
EXTT16=
EXTT17=
EXTT18=
EXTT19=
PLAYORDER=
